<?xml version="1.0" encoding="UTF-8" standalone="no"?>
<svg width="33px" height="28px" viewBox="0 0 33 28" version="1.1" xmlns="http://www.w3.org/2000/svg" xmlns:xlink="http://www.w3.org/1999/xlink">
    <!-- Generator: sketchtool 3.8.3 (29802) - http://www.bohemiancoding.com/sketch -->
    <title>ED8941D8-08D3-44C8-8394-BD9E184E2314</title>
    <desc>Created with sketchtool.</desc>
    <defs></defs>
    <g id="Desktop" stroke="none" stroke-width="1" fill="none" fill-rule="evenodd">
        <g id="1-Главная-Triton" transform="translate(-1446.000000, -68.000000)" fill="#4A4A4A">
            <g id="Header" transform="translate(-3.000000, -1.000000)">
                <g id="Page-1" transform="translate(1449.000000, 69.000000)">
                    <path d="M25.3238446,15.8126182 L25.8447369,12.0906545 L29.3584754,12.0906545 L28.14966,15.8126182 L25.3238446,15.8126182 Z M12.2035523,6.53647273 L12.7315523,10.3088364 L9.45947538,10.3088364 L8.63041385,6.29567273 L12.2035523,6.53647273 Z M20.2819523,10.3088364 L20.2819523,7.08170909 L24.7100446,7.38003636 L24.2998292,10.3088364 L20.2819523,10.3088364 Z M20.2819523,12.0906545 L24.0505523,12.0906545 L23.52966,15.8126182 L20.2819523,15.8126182 L20.2819523,12.0906545 Z M14.5257369,10.3088364 L14.0149985,6.65916364 L18.5050292,6.96156364 L18.5050292,10.3088364 L14.5257369,10.3088364 Z M14.7750138,12.0906545 L18.5050292,12.0906545 L18.5050292,15.8126182 L15.2964138,15.8126182 L14.7750138,12.0906545 Z M10.5972138,15.8126182 L9.82755231,12.0906545 L12.9808292,12.0906545 L13.5017215,15.8126182 L10.5972138,15.8126182 Z M29.9367369,10.3088364 L26.0945215,10.3088364 L26.4874754,7.49967273 L30.7551369,7.78781818 L29.9367369,10.3088364 Z M26.8108754,25.9547273 C25.99146,25.9547273 25.32486,25.2862909 25.32486,24.4646182 C25.32486,23.7004727 25.9036292,23.0758182 26.6438446,22.9918182 L26.9773985,22.9918182 C27.7176138,23.0758182 28.2973985,23.7004727 28.2973985,24.4646182 C28.2973985,25.2862909 27.6302908,25.9547273 26.8108754,25.9547273 L26.8108754,25.9547273 Z M13.3864754,25.9547273 C12.56706,25.9547273 11.90046,25.2862909 11.90046,24.4646182 C11.90046,23.6429455 12.56706,22.9745091 13.3864754,22.9745091 C14.2063985,22.9745091 14.8735062,23.6429455 14.8735062,24.4646182 C14.8735062,25.2862909 14.2063985,25.9547273 13.3864754,25.9547273 L13.3864754,25.9547273 Z M29.6397369,16.9794545 L32.7980908,7.25123636 C32.8828754,6.99007273 32.8427677,6.70396364 32.6889369,6.47690909 C32.5356138,6.24883636 32.2858292,6.10527273 32.0126908,6.08694545 L8.25573692,4.48483636 L7.47592154,0.710436364 C7.39062923,0.296545455 7.02712154,-0.000254545454 6.60573692,-0.000254545454 L0.888613846,-0.000254545454 C0.397675385,-0.000254545454 0.000152307693,0.398872727 0.000152307693,0.890654545 C0.000152307693,1.38294545 0.397675385,1.78156364 0.888613846,1.78156364 L5.88278308,1.78156364 L9.00813692,16.9025818 C9.00813692,16.9025818 9.07718308,17.1825818 9.09292154,17.2645455 C9.47826,19.3777818 10.2601062,20.9101455 11.4262754,21.8555273 C10.6368138,22.4532 10.1235369,23.3985818 10.1235369,24.4646182 C10.1235369,26.2688364 11.5872138,27.7365455 13.3864754,27.7365455 C15.1862446,27.7365455 16.6504292,26.2688364 16.6504292,24.4646182 C16.6504292,23.9346545 16.5209677,23.4352364 16.2965677,22.9918182 L23.9012908,22.9918182 C23.6768908,23.4352364 23.5479369,23.9346545 23.5479369,24.4646182 C23.5479369,26.2688364 25.0116138,27.7365455 26.8108754,27.7365455 C28.6101369,27.7365455 30.0743215,26.2688364 30.0743215,24.4646182 C30.0743215,22.6604 28.6101369,21.1926909 26.8108754,21.1926909 C26.6986754,21.1926909 26.5874908,21.1988 26.4783369,21.21 L14.9486446,21.21 C13.4017062,21.21 11.7415523,20.7614909 10.9784908,17.5944364 L28.7949369,17.5944364 C29.1797677,17.5944364 29.5209369,17.346 29.6397369,16.9794545 L29.6397369,16.9794545 Z" id="buy-icon"></path>
                </g>
            </g>
        </g>
    </g>
</svg>