<?xml version="1.0" encoding="UTF-8" standalone="no"?>
<svg width="23px" height="20px" viewBox="0 0 23 20" version="1.1" xmlns="http://www.w3.org/2000/svg" xmlns:xlink="http://www.w3.org/1999/xlink">
    <!-- Generator: sketchtool 3.8.3 (29802) - http://www.bohemiancoding.com/sketch -->
    <title>3AF276F7-2BFE-499E-874E-BE23C35838F4</title>
    <desc>Created with sketchtool.</desc>
    <defs></defs>
    <g id="Mobile" stroke="none" stroke-width="1" fill="none" fill-rule="evenodd">
        <g id="1M-Главная-triton" transform="translate(-16.000000, -65.000000)" fill="#383636">
            <g id="Group-6" transform="translate(16.000000, 65.000000)">
                <g id="icon-catalog">
                    <path d="M5.80360065,8.06895652 C5.42131403,8.06895652 5.11105242,7.72808696 5.11105242,7.30808696 C5.11105242,6.88808696 5.42131403,6.54721739 5.80360065,6.54721739 L16.93598,6.54721739 C17.3182666,6.54721739 17.6285282,6.88808696 17.6285282,7.30808696 C17.6285282,7.72808696 17.3182666,8.06895652 16.93598,8.06895652 L5.80360065,8.06895652 Z" id="Fill-1"></path>
                    <path d="M7.09876351,5.05495652 C6.7058567,5.05495652 6.38697581,4.71408696 6.38697581,4.29408696 C6.38697581,3.87408696 6.7058567,3.53321739 7.09876351,3.53321739 L15.6403817,3.53321739 C16.0332885,3.53321739 16.3521694,3.87408696 16.3521694,4.29408696 C16.3521694,4.71408696 16.0332885,5.05495652 15.6403817,5.05495652 L7.09876351,5.05495652 Z" id="Fill-3"></path>
                    <path d="M8.28753712,2.02273913 C7.90829798,2.02273913 7.60122016,1.68186957 7.60122016,1.26186957 C7.60122016,0.841869565 7.90829798,0.501 8.28753712,0.501 L13.7536506,0.501 L14.4523919,0.501 C14.8312389,0.501 15.1387089,0.841869565 15.1387089,1.26186957 C15.1387089,1.68186957 14.8312389,2.02273913 14.4523919,2.02273913 L8.28753712,2.02273913 Z" id="Fill-5"></path>
                    <path d="M21.2150823,18.1941739 L1.52432419,18.1941739 L1.52432419,11.0828696 L7.50325968,11.0828696 C8.01321129,12.732 9.55351774,13.9333043 11.369921,13.9333043 C13.1863242,13.9333043 14.7261952,12.732 15.2365823,11.0828696 L21.2150823,11.0828696 L21.2150823,18.1941739 Z M22.6034048,9.82591304 L17.8030661,0.838086957 C17.6053565,0.467217391 17.1437435,0.326782609 16.7722758,0.524608696 C16.4008081,0.722 16.2601468,1.18330435 16.4582919,1.55373913 L20.735179,9.56113043 L15.3990177,9.56113043 L13.8669855,9.56026087 C13.8813565,9.6693913 13.8918081,9.77982609 13.8918081,9.89286957 C13.8918081,11.2815652 12.760421,12.4115652 11.369921,12.4115652 C9.97898548,12.4115652 8.84803387,11.2815652 8.84803387,9.89286957 C8.84803387,9.77982609 8.85805,9.6693913 8.87242097,9.56026087 L7.34038871,9.56026087 L2.00379194,9.56113043 L6.27763065,1.55373913 C6.47577581,1.18286957 6.33467903,0.722 5.96321129,0.524173913 C5.59174355,0.326782609 5.13013065,0.467217391 4.93242097,0.838086957 L0.135566129,9.82591304 C0.103775806,9.88504348 0.0837435484,9.94678261 0.0689370968,10.0089565 C0.0258241935,10.1046087 0.000130645161,10.2102609 0.000130645161,10.322 L0.000130645161,18.9550435 C0.000130645161,19.3750435 0.341114516,19.715913 0.762227419,19.715913 L21.977179,19.715913 C22.3978565,19.715913 22.7392758,19.3750435 22.7392758,18.9550435 L22.7392758,10.322 C22.7392758,10.2098261 22.7135823,10.1046087 22.6700339,10.0085217 C22.6552274,9.94634783 22.6351952,9.88504348 22.6034048,9.82591304 Z" id="Fill-7"></path>
                </g>
            </g>
        </g>
    </g>
</svg>