<?xml version="1.0" encoding="UTF-8" standalone="no"?>
<svg width="33px" height="33px" viewBox="0 0 33 33" version="1.1" xmlns="http://www.w3.org/2000/svg" xmlns:xlink="http://www.w3.org/1999/xlink">
    <!-- Generator: sketchtool 3.8.3 (29802) - http://www.bohemiancoding.com/sketch -->
    <title>E73AE77C-386D-4BC4-B816-E0DCA8C651B8</title>
    <desc>Created with sketchtool.</desc>
    <defs></defs>
    <g id="Desktop" stroke="none" stroke-width="1" fill="none" fill-rule="evenodd">
        <g id="1-Главная-Triton" transform="translate(-1458.000000, -2606.000000)" fill="#506196">
            <g id="Footer" transform="translate(0.000000, 2521.000000)">
                <g id="Group-25">
                    <path d="M1471.69346,101.085047 C1471.74042,101.143925 1471.71379,101.553972 1471.71379,101.630374 L1471.71659,110.283411 L1475.46799,110.283411 C1475.48972,108.006075 1475.46869,105.668458 1475.46869,103.380607 C1475.46869,103.347664 1475.46098,101.163551 1475.4715,101.117991 C1475.4785,101.08785 1475.47921,101.092056 1475.48692,101.079439 C1475.49182,101.08014 1477.8736,101.099065 1477.95631,101.078738 L1477.99836,101.066822 L1478.3278,97.9084112 L1475.48061,97.9084112 C1475.46939,97.4422897 1475.48271,96.9628505 1475.48341,96.4946262 C1475.48341,96.067757 1475.4729,95.5399533 1475.72734,95.3058411 L1478.31308,95.0457944 L1478.30888,91.8775701 C1477.81963,91.8481308 1477.23925,91.8747664 1476.74019,91.8747664 C1476.22009,91.8747664 1475.69439,91.8642523 1475.18341,91.8985981 C1474.20981,91.9630841 1473.42336,92.253271 1472.85491,92.7376168 C1472.03061,94.0588785 1471.71168,92.9240654 1471.70537,97.9091121 L1469.82056,97.910514 L1469.82407,101.082944 L1471.69346,101.085047 Z M1474.07383,85 C1482.95117,85 1490.14836,92.1964953 1490.14836,101.073832 C1490.14836,109.951869 1482.95117,117.147664 1474.07383,117.147664 C1465.1965,117.147664 1458,109.951869 1458,101.073832 C1458,92.1964953 1465.1965,85 1474.07383,85 L1474.07383,85 Z" id="Fill-3"></path>
                </g>
            </g>
        </g>
    </g>
</svg>