<?xml version="1.0" encoding="UTF-8" standalone="no"?>
<svg width="133px" height="34px" viewBox="0 0 133 34" version="1.1" xmlns="http://www.w3.org/2000/svg" xmlns:xlink="http://www.w3.org/1999/xlink">
    <!-- Generator: sketchtool 3.8.3 (29802) - http://www.bohemiancoding.com/sketch -->
    <title>CEF80689-BBC9-498A-8277-FB85E1C67B67</title>
    <desc>Created with sketchtool.</desc>
    <defs></defs>
    <g id="Desktop" stroke="none" stroke-width="1" fill="none" fill-rule="evenodd">
        <g id="1-Главная-Triton" transform="translate(-1311.000000, -1791.000000)">
            <g id="Group-12-Copy-8" transform="translate(1377.579207, 1808.713520) rotate(1.000000) translate(-1377.579207, -1808.713520) translate(1311.579207, 1792.213520)">
                <g id="tag-long" transform="translate(0.000000, 0.000000)">
                    <path d="M0.3756,1.0263 C17.3666,-0.6497 40.9016,1.0303 57.3106,3.5993 C80.9916,7.3063 109.6006,5.7173 129.2636,1.5063 C128.4416,6.2243 125.6766,11.5813 122.1446,14.8813 C124.4416,17.9743 127.4416,20.4743 131.3506,22.7613 C124.6006,29.7613 89.2726,33.7233 61.7746,30.5903 C42.0246,28.3403 13.9206,26.4033 1.7066,27.7773 L0.3756,1.0263 Z" id="Fill-1" fill="#FFFFFF"></path>
                    <path d="M0.3756,1.4013 C12.1256,0.3183 23.9856,0.6363 35.7376,1.5253 C47.4276,2.4093 58.9516,4.6083 70.6336,5.4873 C83.1336,6.4273 95.7476,6.2023 108.2246,5.0183 C113.1906,4.5473 118.1436,3.9143 123.0616,3.0733 C124.1806,2.8823 125.4876,2.4013 126.6276,2.4253 C128.8506,2.4713 128.4396,2.3003 128.1856,4.2923 C127.7226,7.9123 124.3036,12.1613 121.8796,14.6163 C121.7256,14.7733 121.7536,14.9863 121.8796,15.1473 C123.7716,17.5423 125.9156,19.5583 128.3966,21.3233 C129.8856,22.3833 130.8656,22.2333 129.8076,23.5543 C129.2966,24.1923 128.0106,24.6093 127.2696,24.9543 C122.4466,27.1953 116.9746,28.2233 111.7636,29.0813 C97.5996,31.4153 82.9686,31.8463 68.6626,30.8423 C54.3766,29.8403 40.1906,27.9663 25.8676,27.2973 C19.6316,27.0063 13.3696,26.7973 7.1276,27.0323 C6.3096,27.0633 2.0886,27.6093 2.0726,27.5933 C1.7076,27.2063 1.9236,24.5953 1.9006,24.1283 C1.5166,16.4273 1.1336,8.7273 0.7506,1.0263 C0.7266,0.5463 -0.0234,0.5433 0.0006,1.0263 C0.4446,9.9433 0.8886,18.8603 1.3316,27.7773 C1.3416,27.9643 1.4966,28.1743 1.7066,28.1523 C25.5876,25.6893 49.5796,30.8123 73.3686,31.8603 C85.5666,32.3973 97.8996,31.9213 109.9826,30.1133 C116.8096,29.0923 126.3266,28.0803 131.6156,23.0263 C131.7936,22.8563 131.7406,22.5603 131.5396,22.4373 C129.1216,20.9623 126.7916,19.3623 124.7846,17.3483 C122.9666,15.5243 123.2146,14.8993 124.4866,12.8653 C126.8016,9.1633 128.7026,5.9573 129.6256,1.6053 C129.6866,1.3173 129.4516,1.0843 129.1636,1.1443 C107.6646,5.6373 84.8606,6.6283 63.0506,4.0073 C42.1716,1.4983 21.4626,-1.2927 0.3756,0.6513 C-0.1014,0.6953 -0.1054,1.4453 0.3756,1.4013" id="Fill-3" fill="#F56A0D"></path>
                </g>
            </g>
        </g>
    </g>
</svg>