<?xml version="1.0" encoding="UTF-8" standalone="no"?>
<svg width="32px" height="33px" viewBox="0 0 32 33" version="1.1" xmlns="http://www.w3.org/2000/svg" xmlns:xlink="http://www.w3.org/1999/xlink">
    <!-- Generator: sketchtool 3.8.3 (29802) - http://www.bohemiancoding.com/sketch -->
    <title>17AB2E77-7B56-469A-9798-62786B2A0E06</title>
    <desc>Created with sketchtool.</desc>
    <defs></defs>
    <g id="Desktop" stroke="none" stroke-width="1" fill="none" fill-rule="evenodd">
        <g id="1-Главная-Triton" transform="translate(-1499.000000, -2605.000000)">
            <g id="Footer" transform="translate(0.000000, 2521.000000)">
                <g id="Group-25">
                    <g id="Group-3" transform="translate(1499.000000, 84.000000)">
                        <path d="M13.6921963,13.5426168 C13.8947664,13.0842056 13.9795794,12.6061682 13.9830841,12.1064019 C13.9403271,10.8608411 13.5492056,9.76247664 12.5924299,8.91714953 C12.1445327,8.52182243 11.6230374,8.27859813 11.0097196,8.33327103 C10.2169626,8.40406542 9.7221028,8.88771028 9.41579439,9.58233645 C9.10247664,10.2916822 9.05971963,11.0353738 9.20831776,11.7902804 C9.40808411,12.8150467 9.8538785,13.7024299 10.7104206,14.3381776 C11.8214019,15.1638785 13.1314486,14.8078037 13.6921963,13.5426168" id="Fill-11" fill="#D24E46"></path>
                        <path d="M13.913972,19.2295093 C13.0651402,18.8145561 12.1616355,18.7010047 11.2335981,18.8180607 C10.2831308,18.9386215 9.42238318,19.2771729 8.71443925,19.9472664 C7.60556075,20.9972664 7.64130841,22.4783411 8.8146729,23.4540421 C9.60742991,24.1122196 10.5550935,24.3316121 11.5630374,24.343528 C11.6226168,24.343528 11.6821963,24.3470327 11.7424766,24.343528 C12.8569626,24.2867523 13.8768224,23.969229 14.6983178,23.1834813 C15.3845327,22.5267056 15.7104673,21.7346495 15.3999533,20.7848832 C15.1553271,20.0383879 14.5973832,19.5631542 13.913972,19.2295093" id="Fill-13" fill="#D24E46"></path>
                        <path d="M26.1714252,11.828271 C25.0870794,11.8317757 24.0034346,11.8338785 22.9197897,11.8380841 C22.488014,11.839486 22.5440888,11.7995327 22.5433879,12.2067757 C22.5405841,13.1775701 22.5426869,14.1483645 22.5433879,15.1191589 L22.5433879,15.3504673 L21.8578738,15.3504673 L21.8578738,14.8780374 C21.8585748,13.9401869 21.855771,13.0023364 21.8641822,12.0651869 C21.8655841,11.8913551 21.8179206,11.8359813 21.641285,11.8366822 C20.6375467,11.8429907 19.6331075,11.8401869 18.6293692,11.839486 L18.3258645,11.839486 L18.3258645,10.9703271 L21.8529673,10.9703271 L21.8529673,7.58971963 L22.5300701,7.58971963 C22.5356776,7.68714953 22.5440888,7.77757009 22.5440888,7.86728972 C22.5440888,8.82476636 22.5468925,9.78294393 22.5384813,10.7397196 C22.5363785,10.9128505 22.5833411,10.9696262 22.7606776,10.9682243 C23.8583411,10.961215 24.9560047,10.9647196 26.0529673,10.9640187 C26.0922196,10.9640187 26.131472,10.9556075 26.1714252,10.9507009 L26.1714252,11.828271 Z M15.3959579,24.45 C14.5590421,25.0023364 13.6338084,25.3149533 12.6517991,25.4614486 C11.2548364,25.6689252 9.86698598,25.6331776 8.51558411,25.1866822 C7.57212617,24.8733645 6.74221963,24.3869159 6.25436916,23.4721963 C5.57025701,22.1859813 5.66698598,20.1469626 7.41511682,19.1172897 C8.31441589,18.5873832 9.28941589,18.310514 10.3113785,18.1850467 C10.8574065,18.1170561 11.409743,18.1030374 11.9599766,18.064486 C11.998528,18.0616822 12.0370794,18.0560748 12.0875467,18.0511682 C12.0749299,17.7196262 11.9634813,17.4413551 11.6971262,17.2556075 C11.4798364,17.1042056 11.4083411,16.9107477 11.4174533,16.6598131 C11.4279673,16.3675234 11.4195561,16.0759346 11.4195561,15.7338785 C11.0810047,15.7338785 10.756472,15.7570093 10.4368458,15.728972 C9.57329439,15.653271 8.77492991,15.3974299 8.09712617,14.8261682 C7.5686215,14.3810748 7.24689252,13.8126168 7.08567757,13.1502336 C6.86418224,12.246729 6.87049065,11.3439252 7.16488318,10.4586449 C7.49852804,9.45420561 8.19245327,8.74906542 9.10857477,8.25700935 C10.1354439,7.70537383 11.2401168,7.45303738 12.4015654,7.44953271 C13.9120794,7.4453271 15.4211916,7.44883178 16.9303037,7.44883178 L17.0978271,7.44883178 C17.1062383,7.64439252 16.9898832,7.75163551 16.8433879,7.79509346 C16.5265654,7.88971963 16.2034346,7.96331776 15.8810047,8.03200935 C15.5901168,8.09509346 15.2936215,8.13574766 15.0020327,8.19742991 C14.9340421,8.2114486 14.8737617,8.2703271 14.7896495,8.32219626 C14.8555374,8.37056075 14.8891822,8.40350467 14.9291355,8.42242991 C15.6468925,8.76448598 16.0471262,9.34205607 16.166986,10.1172897 C16.2791355,10.8357477 16.3183879,11.5577103 16.2062383,12.2803738 C16.0877804,13.0492991 15.7001636,13.671729 15.1429206,14.1939252 C14.8373131,14.4799065 14.5141822,14.7476636 14.1994626,15.0238318 C14.1693224,15.0497664 14.1384813,15.075 14.1090421,15.1030374 C13.5461916,15.6294393 13.5223598,16.1271028 14.0803037,16.6563084 C14.5527336,17.1035047 15.0693224,17.5044393 15.5550701,17.9383178 C16.113715,18.4380841 16.5945561,18.9988318 16.8749299,19.7109813 C17.4433879,21.1549065 17.0438551,23.3628505 15.3959579,24.45 L15.3959579,24.45 Z M16.016285,0.393925234 C7.18310748,0.393925234 0.0223598131,7.6114486 0.0223598131,16.5154206 C0.0223598131,25.4193925 7.18310748,32.6369159 16.016285,32.6369159 C24.8473598,32.6369159 32.0088084,25.4193925 32.0088084,16.5154206 C32.0088084,7.6114486 24.8473598,0.393925234 16.016285,0.393925234 L16.016285,0.393925234 Z" id="Fill-15" fill="#D24E45"></path>
                    </g>
                </g>
            </g>
        </g>
    </g>
</svg>