<?xml version="1.0" encoding="UTF-8" standalone="no"?>
<svg width="33px" height="33px" viewBox="0 0 33 33" version="1.1" xmlns="http://www.w3.org/2000/svg" xmlns:xlink="http://www.w3.org/1999/xlink">
    <!-- Generator: sketchtool 3.8.3 (29802) - http://www.bohemiancoding.com/sketch -->
    <title>DF18008E-5FEE-4D4E-9BB6-032C450F06A1</title>
    <desc>Created with sketchtool.</desc>
    <defs></defs>
    <g id="Desktop" stroke="none" stroke-width="1" fill="none" fill-rule="evenodd">
        <g id="1-Главная-Triton" transform="translate(-1375.000000, -2649.000000)" fill="#F7882E">
            <g id="Footer" transform="translate(0.000000, 2521.000000)">
                <g id="Group-25">
                    <g id="Group-6" transform="translate(1375.000000, 128.000000)">
                        <path d="M16.4404907,13.4115421 C19.3746028,13.3764953 19.3395561,8.71598131 16.2021729,8.9367757 C13.2295093,9.14635514 13.4482009,13.4486916 16.4404907,13.4115421" id="Fill-5"></path>
                        <path d="M22.0513318,26.3103505 C20.9789019,27.4024065 19.8342757,26.3979673 18.9994626,25.5953972 C18.2831075,24.9056776 17.4223598,24.0414252 16.6723598,23.4540421 C14.7153505,25.5168925 13.1263318,27.9946963 11.5190888,26.6236682 C9.5936215,24.9792757 13.3744626,22.5687617 14.2968925,21.1486682 C13.3359112,20.9341822 11.7188551,20.411986 10.9576402,19.833715 C10.1943224,19.2519393 10.0541355,17.9166589 10.9758645,17.2549766 C12.0812383,16.4594159 12.823528,17.3355841 14.1286682,17.7561449 C19.0737617,19.3479673 20.9866121,14.8893224 22.4501636,17.5031075 C23.698528,19.7320794 19.4522664,20.7168925 18.9433879,21.0603505 C20.9845093,23.0131542 23.5996963,24.7360514 22.0513318,26.3103505 M10.905771,10.2407243 C11.4048364,6.95053738 14.5835748,5.31175234 17.2765654,5.77086449 C20.4475935,6.31268692 22.1739953,9.22857477 21.7905841,11.9159579 C20.7553037,19.1930607 9.8046028,17.4897897 10.905771,10.2407243 M16.7739953,0.441658879 C7.89665888,0.441658879 0.699462617,7.63815421 0.699462617,16.5154907 C0.699462617,25.3928271 7.89665888,32.5893224 16.7739953,32.5893224 C25.6513318,32.5893224 32.8471262,25.3928271 32.8471262,16.5154907 C32.8471262,7.63815421 25.6513318,0.441658879 16.7739953,0.441658879" id="Fill-7"></path>
                    </g>
                </g>
            </g>
        </g>
    </g>
</svg>