<?xml version="1.0" encoding="UTF-8" standalone="no"?>
<svg width="227px" height="63px" viewBox="0 0 227 63" version="1.1" xmlns="http://www.w3.org/2000/svg" xmlns:xlink="http://www.w3.org/1999/xlink">
    <!-- Generator: sketchtool 3.8.3 (29802) - http://www.bohemiancoding.com/sketch -->
    <title>15163F2C-FE76-4A98-B8DC-2C753F4683D9</title>
    <desc>Created with sketchtool.</desc>
    <defs></defs>
    <g id="Desktop" stroke="none" stroke-width="1" fill="none" fill-rule="evenodd">
        <g id="1-Главная-Triton" transform="translate(-1094.000000, -347.000000)">
            <g id="Group-28" transform="translate(1093.000000, 336.000000)">
                <g id="Page-1-Copy" transform="translate(114.465122, 42.001218) rotate(-4.000000) translate(-114.465122, -42.001218) translate(2.965122, 8.001218)">
                    <path d="M1,5.1216412 C18.1964681,2.0295335 63.6534627,-2.92934434 111.284552,6.36567523 C155.505589,14.994813 199.993311,17.9128998 219.691477,15.3831242 C216.79855,23.8670048 213.533346,31.8460809 202.886238,40.8822263 C207.452378,45.6181848 211.54742,57.481811 223,60.6558955 C207.961382,70.8325253 160.790562,67.7404176 112.638285,58.619419 C70.9568513,50.7237579 26.5557683,52.7889982 2.99134099,56.9611863 C2.99134099,56.9611863 7.47355038,38.4473713 17.9297827,30.5128791 C8.96671769,22.5783869 1,5.1216412 1,5.1216412" id="Fill-1" fill="#FFFFFF"></path>
                    <path d="M0.636760871,5.47242776 C17.1927777,2.52478346 34.0885787,1.41397169 50.8557762,1.3341094 C76.8864915,1.21068587 101.888378,5.54357779 127.518392,9.77627884 C149.226674,13.3613694 171.167796,15.9097023 193.131931,16.5921618 C197.615457,16.7315578 202.101691,16.7881874 206.585217,16.6879965 C208.874361,16.6371751 214.855104,15.1560927 216.761144,16.1260564 C217.748007,15.5771847 218.21098,15.7891828 218.154123,16.7635027 C217.613988,18.3229953 217.031888,19.8636113 216.403761,21.3853509 C215.725547,23.000021 214.986415,24.5841983 214.155229,26.1146501 C211.036255,31.8618305 206.765262,36.4575419 202.027236,40.6670103 C201.811995,40.8586798 201.85396,41.2391146 202.027236,41.4365923 C206.430893,46.4374233 209.108555,52.7872009 214.235099,57.127353 C215.496768,58.1946036 220.973926,61.2409867 220.934668,61.3542459 C220.337677,63.0807233 212.628231,64.4862995 211.163504,64.8115568 C192.774548,68.8859853 172.865363,66.8850721 154.366755,64.8609262 C130.531776,62.2545117 107.106976,56.5741252 83.2354464,54.4178435 C62.1931957,52.5156691 40.9208123,52.4459712 19.8826228,54.4439803 C16.0475291,54.8084427 12.2178503,55.2469593 8.40170876,55.795831 C8.02537412,55.8495565 2.57393668,56.6205905 3.00848136,57.3277348 C2.81354543,57.0097377 3.54861633,55.4415328 3.6339008,55.0828786 C5.74435299,46.1092619 10.9832561,36.6129103 17.789769,30.9673729 C17.9982422,30.7945799 17.9752289,30.3749399 17.789769,30.1977909 C10.5419428,23.3267304 5.17578986,13.943638 0.93999454,4.67235287 C0.653005532,4.04361889 -0.222852432,4.59394263 0.0641365761,5.22267661 C1.85375671,9.13883261 3.9019377,12.9373732 6.0936132,16.6095863 C7.60301293,19.1404946 9.19634342,21.6205816 10.9331684,23.978697 C12.0350979,25.4728477 13.5336679,26.8929444 14.544898,28.4408206 C16.2126832,30.9949617 16.0800185,30.0540388 14.4785656,32.510893 C9.27079811,40.4942173 4.39198497,47.4553044 2.00401983,57.1418735 C1.89707581,57.5760339 2.25581207,57.8766065 2.62808555,57.8112646 C43.5862904,50.6904529 84.4334902,55.0001122 125.088461,61.8406798 C144.889349,65.1731151 164.937968,67.7432286 185.001478,67.9552267 C197.0672,68.0815543 211.997397,68.3966473 222.756777,61.4863817 C223.138527,61.2409867 223.050535,60.6296772 222.634942,60.4917333 C216.455203,58.4370945 212.151721,54.1622842 208.399205,48.6822795 C207.306751,47.0864859 205.999056,45.4238983 205.1056,43.6945169 C203.849346,41.2623473 203.118336,41.6674669 205.532022,38.9013278 C211.916174,31.5801344 216.428128,24.9472087 219.681122,15.4523092 C219.786712,15.1430243 219.506491,14.7248364 219.191074,14.7625894 C180.631664,19.4367111 140.903992,10.5052037 103.006552,4.24400062 C69.3422002,-1.31731843 34.0263075,-1.57142569 0.367370245,4.42260173 C-0.27564758,4.53731301 -0.00354951076,5.58568699 0.636760871,5.47242776" id="Fill-3" fill="#E73435"></path>
                </g>
            </g>
        </g>
    </g>
</svg>