<?xml version="1.0" encoding="UTF-8" standalone="no"?>
<svg width="66px" height="31px" viewBox="0 0 66 31" version="1.1" xmlns="http://www.w3.org/2000/svg" xmlns:xlink="http://www.w3.org/1999/xlink">
    <!-- Generator: sketchtool 3.8.3 (29802) - http://www.bohemiancoding.com/sketch -->
    <title>9C308A7C-A640-4A56-8244-1741AE9ED50C</title>
    <desc>Created with sketchtool.</desc>
    <defs></defs>
    <g id="Desktop" stroke="none" stroke-width="1" fill="none" fill-rule="evenodd">
        <g id="1-Главная-Triton" transform="translate(-1079.000000, -929.000000)">
            <g id="tag-small" transform="translate(1079.813627, 929.957937)">
                <path d="M0.3751,0.7234 C24.2431,-1.7826 41.8271,6.2434 62.9301,3.6924 C61.4781,7.7024 59.5981,12.5144 54.2521,16.7844 C56.5451,19.0234 58.8411,23.5894 64.5911,25.0894 C50.5051,34.0614 29.9931,23.7844 0.9091,26.3694 L0.3751,0.7234 Z" id="Fill-1" fill="#FFFFFF"></path>
                <path d="M0.3751,1.0984 C13.4221,-0.1306 26.0721,1.8184 38.9821,3.4424 C44.7471,4.1674 50.5541,4.7124 56.3721,4.5464 C57.0281,4.5274 60.7611,3.9434 61.2711,4.2474 C62.7501,5.1274 61.4921,6.5434 60.7061,8.1314 C59.0711,11.4354 56.7761,14.1304 53.9871,16.5194 C53.8311,16.6534 53.8561,16.9124 53.9871,17.0494 C55.3391,18.4724 56.4721,20.0904 57.8601,21.4794 C58.8861,22.5054 62.5501,24.0724 63.0351,24.9774 C64.0051,26.7894 53.0061,28.3464 51.3821,28.4204 C40.3651,28.9244 29.3091,26.3994 18.3301,25.7824 C14.9411,25.5914 11.5441,25.5164 8.1501,25.5944 C6.6871,25.6274 1.6321,26.4934 1.2751,25.9374 C0.3461,24.4924 1.1431,19.5974 1.1081,17.9064 L0.7501,0.7234 C0.7401,0.2414 -0.0099,0.2394 9.99999999e-05,0.7234 C0.1781,9.2724 0.3561,17.8204 0.5341,26.3694 C0.5381,26.5594 0.7031,26.7604 0.9091,26.7444 C13.9851,25.6964 26.7261,27.3364 39.7051,28.6374 C48.2291,29.4914 57.1711,29.9964 64.7811,25.4124 C65.0641,25.2424 64.9971,24.8244 64.6911,24.7274 C61.6381,23.7544 59.3891,22.1114 57.2871,19.7374 C56.8381,19.2294 55.9021,18.4684 55.6801,17.8074 C55.1251,16.1584 55.7441,16.2534 57.1081,14.6754 C59.9481,11.3894 61.8011,7.8484 63.2921,3.7924 C63.3701,3.5784 63.1621,3.2924 62.9301,3.3174 C41.9621,5.5904 21.4181,-1.6346 0.3751,0.3484 C-0.1009,0.3934 -0.1059,1.1434 0.3751,1.0984" id="Fill-3" fill="#E73435"></path>
            </g>
        </g>
    </g>
</svg>