<?xml version="1.0" encoding="UTF-8" standalone="no"?>
<svg width="105px" height="32px" viewBox="0 0 105 32" version="1.1" xmlns="http://www.w3.org/2000/svg" xmlns:xlink="http://www.w3.org/1999/xlink">
    <!-- Generator: sketchtool 3.8.3 (29802) - http://www.bohemiancoding.com/sketch -->
    <title>028269C2-56BD-4F17-8D20-3B29BEDA0119</title>
    <desc>Created with sketchtool.</desc>
    <defs></defs>
    <g id="Desktop" stroke="none" stroke-width="1" fill="none" fill-rule="evenodd">
        <g id="1-Главная-Triton" transform="translate(-374.000000, -928.000000)">
            <g id="Group-12-Copy-4" transform="translate(426.991511, 943.823086) rotate(1.000000) translate(-426.991511, -943.823086) translate(374.491511, 928.823086)">
                <g id="tag-icon" transform="translate(0.000000, -0.000000)">
                    <path d="M0.3751,0.7677 C17.4091,-0.3873 28.5361,-0.0383 44.9451,2.5307 C68.6261,6.2377 82.1591,7.4197 101.8231,3.2077 C100.3711,7.2177 98.4911,12.0307 93.1451,16.3007 C95.4381,18.5387 98.1591,21.6877 103.9091,23.1877 C97.1591,30.1877 76.9061,30.6707 49.4091,27.5377 C29.6591,25.2877 13.1591,25.1307 0.9091,26.1307 L0.3751,0.7677 Z" id="Fill-1" fill="#FFFFFF"></path>
                    <path d="M0.3751,1.1427 C10.5771,0.4767 20.7771,0.2307 30.9731,1.1437 C41.4521,2.0827 51.7871,4.1547 62.2441,5.3017 C70.6751,6.2257 79.1561,6.5907 87.6141,5.8067 C89.3381,5.6467 91.0571,5.4447 92.7711,5.2047 C94.6841,4.9377 97.6511,3.7777 99.5631,4.0527 C101.1601,4.2817 100.8371,3.4687 100.6081,5.3667 C100.4771,6.4577 99.5141,7.8737 98.9681,8.8577 C97.4171,11.6547 95.2961,13.9657 92.8801,16.0347 C92.7261,16.1667 92.7441,16.4317 92.8801,16.5657 C94.8581,18.5237 96.8261,20.4447 99.2921,21.7847 C99.8761,22.1027 102.3681,22.8157 102.6621,23.2257 C103.1891,23.9607 101.7911,24.4847 100.8271,25.0457 C95.8551,27.9387 89.3841,28.4997 83.7831,28.8277 C66.9161,29.8127 50.2091,26.8057 33.4301,25.7347 C25.6881,25.2397 17.9221,25.0307 10.1661,25.2557 C8.8121,25.2957 1.7911,26.3767 1.2801,25.9367 C0.9511,25.6537 1.2211,23.1217 1.2121,22.7017 C1.0581,15.3907 0.9041,8.0787 0.7501,0.7677 C0.7401,0.2857 -0.0099,0.2837 0.0001,0.7677 C0.1781,9.2217 0.3561,17.6757 0.5341,26.1307 C0.5381,26.3207 0.7031,26.5217 0.9091,26.5057 C22.1321,24.8597 42.8491,27.8227 63.9641,29.2667 C72.5951,29.8577 81.4131,30.1927 90.0081,28.9817 C94.9971,28.2777 100.4381,27.0757 104.1741,23.4527 C104.3821,23.2517 104.2741,22.9057 104.0091,22.8257 C100.8131,21.8557 98.1591,20.4607 95.6601,18.2267 C93.1661,15.9977 95.2991,15.1107 97.0721,12.9777 C99.4541,10.1127 100.9121,6.7687 102.1841,3.3077 C102.2901,3.0197 101.9791,2.7927 101.7231,2.8467 C85.1341,6.3057 69.0661,5.6747 52.3901,3.2787 C34.8801,0.7637 18.1001,-0.7633 0.3751,0.3927 C-0.1039,0.4237 -0.1079,1.1747 0.3751,1.1427" id="Fill-3" fill="#E73435"></path>
                </g>
            </g>
        </g>
    </g>
</svg>