<?xml version="1.0" encoding="UTF-8" standalone="no"?>
<svg width="186px" height="53px" viewBox="0 0 186 53" version="1.1" xmlns="http://www.w3.org/2000/svg" xmlns:xlink="http://www.w3.org/1999/xlink">
    <!-- Generator: sketchtool 3.8.3 (29802) - http://www.bohemiancoding.com/sketch -->
    <title>63A29417-5FBD-4358-887C-F2E4FD17C7FC</title>
    <desc>Created with sketchtool.</desc>
    <defs></defs>
    <g id="Desktop" stroke="none" stroke-width="1" fill="none" fill-rule="evenodd">
        <g id="1-Главная-Triton" transform="translate(-428.000000, -288.000000)">
            <g id="Page-1" transform="translate(521.415888, 314.768878) rotate(-4.000000) translate(-521.415888, -314.768878) translate(429.915888, 285.268878)">
                <path d="M0.713421325,4.29003036 C14.8054186,1.63169961 52.056082,-2.63152104 91.0883519,5.35954482 C127.326184,12.7781422 163.782557,15.2868646 179.924622,13.1119791 C177.553954,20.4056968 174.878216,27.2654266 166.153225,35.0339345 C169.895043,39.1055081 173.250809,49.3048431 182.635859,52.0336505 C170.312156,60.7826497 131.657063,58.124319 92.1976959,50.2828615 C58.0409931,43.4948449 21.655618,45.2703625 2.3452664,48.8572544 C2.3452664,48.8572544 6.01830451,32.9406536 14.5868778,26.1192533 C7.24191098,19.2978529 0.713421325,4.29003036 0.713421325,4.29003036" id="Fill-1" fill="#FFFFFF"></path>
                <path d="M0.521503896,4.68651997 C14.080797,2.16219356 27.9183716,1.210908 41.6506205,1.14251492 C62.9696432,1.03681652 83.4460605,4.74745198 104.436911,8.37228522 C122.215882,11.4425127 140.185549,13.6248737 158.174063,14.2093237 C161.846048,14.3287007 165.520251,14.3771976 169.192236,14.2913954 C171.067033,14.2478725 175.965231,12.9794918 177.526268,13.8101568 C178.334504,13.3401098 178.713676,13.5216624 178.667111,14.3560579 C178.224743,15.6915883 177.748006,17.010953 177.233573,18.314152 C176.678119,19.6969357 176.072774,21.0536057 175.392037,22.3642658 C172.837613,27.2860806 169.339692,31.2217914 165.459273,34.8267285 C165.282991,34.9908719 165.317361,35.3166717 165.459273,35.4857891 C169.065845,39.7684394 171.258837,45.206311 175.45745,48.923164 C176.49075,49.8371443 180.976515,52.4460294 180.944363,52.5430232 C180.45543,54.0215572 174.141434,55.2252755 172.94183,55.5038218 C157.881369,58.9931124 141.575848,57.2795549 126.425583,55.5461012 C106.904857,53.3139997 87.720065,48.4493865 68.1694048,46.6027733 C50.9359091,44.9737745 33.513936,44.914086 16.2837664,46.6251565 C13.1428443,46.9372777 10.0063569,47.3128179 6.88095649,47.7828649 C6.57274034,47.8288747 2.10804097,48.4891788 2.46393084,49.0947685 C2.30427931,48.8224397 2.90629862,47.4794483 2.97614616,47.1723012 C4.70459571,39.487406 8.99523057,31.3548471 14.5697298,26.5200781 C14.7404682,26.3721003 14.7216205,26.0127258 14.5697298,25.8610175 C8.63379724,19.9767256 4.23894541,11.9411605 0.76985072,4.00134566 C0.53480819,3.46290559 -0.182515002,3.93419609 0.0525275277,4.47263615 C1.51821726,7.82638409 3.19566702,11.0794077 4.99063803,14.2242458 C6.2268287,16.3916847 7.53175821,18.5156007 8.95420899,20.5350618 C9.85668361,21.8146342 11.0840047,23.0307875 11.9121971,24.3563697 C13.2781046,26.5437048 13.1694529,25.7379099 11.8578712,27.8419298 C7.59273623,34.6787508 3.59701322,40.6401403 1.64128199,48.9355991 C1.55369538,49.3074088 1.84749854,49.5648155 2.15238862,49.5088575 C35.6969489,43.4106818 69.1505965,47.1014211 102.44681,52.9595992 C118.663636,55.8134559 135.083352,58.0144696 151.515264,58.1960221 C161.397029,58.3042076 173.624784,58.5740493 182.436661,52.6561827 C182.749312,52.4460294 182.677247,51.9225115 182.336879,51.8043779 C177.275704,50.0448105 173.751174,46.3839155 170.677882,41.6909067 C169.783169,40.3242886 168.712173,38.900469 167.980437,37.419448 C166.951571,35.3365678 166.352878,35.6835073 168.329674,33.3146197 C173.558262,27.0448395 177.25353,21.3644834 179.917715,13.2331679 C180.004193,12.9683002 179.774693,12.6101691 179.516368,12.6425004 C147.936409,16.6453609 115.399649,8.99652751 84.3618394,3.63451005 C56.7909072,-1.12813533 27.8673718,-1.34574968 0.300874352,3.78746184 C-0.225753958,3.88569918 -0.00290703116,4.78351379 0.521503896,4.68651997" id="Fill-3" fill="#E73435"></path>
            </g>
        </g>
    </g>
</svg>