<?xml version="1.0" encoding="UTF-8" standalone="no"?>
<svg width="33px" height="33px" viewBox="0 0 33 33" version="1.1" xmlns="http://www.w3.org/2000/svg" xmlns:xlink="http://www.w3.org/1999/xlink">
    <!-- Generator: sketchtool 3.8.3 (29802) - http://www.bohemiancoding.com/sketch -->
    <title>F44D5CD9-5176-4BB6-921D-A32A5980402D</title>
    <desc>Created with sketchtool.</desc>
    <defs></defs>
    <g id="Desktop" stroke="none" stroke-width="1" fill="none" fill-rule="evenodd">
        <g id="1-Главная-Triton" transform="translate(-1375.000000, -2606.000000)" fill="#79CAFC">
            <g id="Footer" transform="translate(0.000000, 2521.000000)">
                <g id="Group-25">
                    <path d="M1400.13341,101.164252 C1400.20561,101.099766 1400.14953,101.187383 1400.2035,101.059112 L1400.33388,100.604907 C1401.03131,100.583178 1401.51285,100.529907 1402.0771,100.305607 L1403.23785,99.5100467 C1402.85304,99.5051402 1402.4493,99.6088785 1401.82407,99.5121495 L1400.55678,99.2464953 C1400.66051,99.1799065 1400.82243,99.1785047 1400.97033,99.1560748 C1401.12243,99.1336449 1401.2535,99.1133178 1401.4028,99.078271 C1401.69579,99.0095794 1401.90958,98.9443925 1402.15491,98.8308411 L1403.1285,97.878271 C1402.68411,98.0535047 1402.28178,98.1264019 1401.68178,98.1334112 C1401.39089,98.136215 1400.33318,98.1193925 1400.23505,97.8593458 C1400.11869,97.5509346 1400.12009,97.2593458 1399.87757,96.6810748 C1399.72266,96.3130841 1399.53131,95.960514 1399.31612,95.6436916 C1398.87523,94.9911215 1398.3285,94.4485981 1397.68224,94.032243 L1395.01379,93.2843458 C1395.18131,93.1238318 1395.80935,92.9969626 1396.03715,92.9366822 C1397.22664,92.6191589 1397.1236,92.1845794 1396.83551,92.103972 C1396.46822,92.0009346 1395.57173,92.338785 1395.17079,92.4614486 L1395.88925,91.6995327 C1395.14136,91.7696262 1394.6521,92.1425234 1394.09276,92.4873832 L1394.32547,91.9154206 C1393.62033,92.1523364 1392.34813,93.8324766 1391.99556,94.5053738 L1390.50257,97.7801402 C1390.3757,97.728271 1389.49252,96.8226636 1388.81752,96.4196262 C1388.22874,96.067757 1387.44159,95.6920561 1386.76589,95.3787383 C1385.13762,94.6245327 1383.97336,94.1661215 1382.30724,93.5563084 C1382.22383,95.0205607 1383.16308,95.8245327 1384.33505,96.6123832 L1382.90724,96.8002336 C1382.93178,97.4254673 1383.41472,98.0766355 1383.78061,98.3885514 C1384.4472,98.9577103 1384.79626,98.9598131 1385.40748,99.1911215 L1385.53364,99.2556075 C1384.54813,99.4266355 1384.84252,99.3172897 1383.98668,99.871729 C1383.9972,100.261449 1384.84533,101.089953 1385.48528,101.232944 L1386.90958,101.41729 C1386.81075,101.50771 1386.65654,101.571495 1386.54019,101.645794 C1386.39509,101.739019 1386.33481,101.794393 1386.23037,101.920561 C1386.03411,102.158879 1385.93248,102.429439 1386.06075,102.758879 L1387.71005,103.510981 C1387.62173,103.685514 1387.08341,104.118692 1386.90187,104.244159 C1385.91565,104.926869 1384.80607,105.40771 1383.39159,105.470093 C1382.38715,105.514252 1381.41355,105.322897 1380.64533,105.015187 C1379.75935,104.660514 1379.39626,104.364019 1378.71986,103.841822 C1378.91822,104.183879 1379.36752,104.654907 1379.64229,104.945794 C1382.22804,107.688551 1386.41262,109.20257 1390.78645,108.421729 C1393.45701,107.944393 1395.1778,107.022664 1396.74229,105.88014 C1396.99953,105.691589 1397.61425,105.140654 1397.83505,104.91285 C1398.51495,104.211916 1399.11986,103.459813 1399.56215,102.592056 C1399.69463,102.331308 1400.15374,101.428505 1400.13341,101.164252 M1391.07383,85 C1399.95117,85 1407.14766,92.1971963 1407.14766,101.074533 C1407.14766,109.951869 1399.95117,117.148364 1391.07383,117.148364 C1382.1965,117.148364 1375,109.951869 1375,101.074533 C1375,92.1971963 1382.1965,85 1391.07383,85" id="Fill-1"></path>
                </g>
            </g>
        </g>
    </g>
</svg>