<?xml version="1.0" encoding="UTF-8" standalone="no"?>
<svg width="34px" height="27px" viewBox="0 0 34 27" version="1.1" xmlns="http://www.w3.org/2000/svg" xmlns:xlink="http://www.w3.org/1999/xlink">
    <!-- Generator: sketchtool 3.8.3 (29802) - http://www.bohemiancoding.com/sketch -->
    <title>C3BD659F-BB21-4B85-B233-CBE53B41F06F</title>
    <desc>Created with sketchtool.</desc>
    <defs></defs>
    <g id="Desktop" stroke="none" stroke-width="1" fill="none" fill-rule="evenodd">
        <g id="1-Главная-Triton" transform="translate(-1313.000000, -69.000000)" fill="#4A4A4A">
            <g id="Header" transform="translate(-3.000000, -1.000000)">
                <path d="M1344.3465,88.8005462 C1342.64225,88.8005462 1341.31524,87.9001809 1340.8565,86.5503802 L1347.81912,86.5967188 C1347.34547,87.9201115 1346.03087,88.8005462 1344.3465,88.8005462 L1344.3465,88.8005462 Z M1347.84397,84.6036576 L1340.86296,84.557319 C1341.39078,82.9220123 1342.98469,80.3459807 1344.3465,78.4097217 C1345.72173,80.3649147 1347.33205,82.9713405 1347.84397,84.6036576 L1347.84397,84.6036576 Z M1318.15603,84.6036576 C1318.66795,82.9713405 1320.27827,80.3649147 1321.6535,78.4097217 C1323.01531,80.3459807 1324.60922,82.9220123 1325.13704,84.557319 L1318.15603,84.6036576 Z M1321.6535,88.8005462 C1319.96913,88.8005462 1318.65453,87.9201115 1318.18088,86.5967188 L1325.1435,86.5503802 C1324.68427,87.9001809 1323.35725,88.8005462 1321.6535,88.8005462 L1321.6535,88.8005462 Z M1345.84599,77.0863291 C1347.05173,76.8855282 1348.16454,76.2228353 1349.04822,74.7639145 C1349.33301,74.2935521 1349.18341,73.6806858 1348.71473,73.3951797 C1348.24456,73.1086772 1347.63324,73.2591533 1347.34895,73.7295158 C1346.6581,74.8710416 1345.8107,75.3199786 1344.39968,75.1356204 L1344.3465,75.0648668 L1344.30326,75.121669 C1343.66162,75.0265003 1342.90716,74.8072636 1342.00012,74.4644571 C1340.68204,73.9661918 1337.42663,72.8690116 1333.97886,72.680169 L1333.97737,70.9955341 C1333.97687,70.4454492 1333.53155,70 1332.98335,70 L1332.98236,70 C1332.43316,70.0004983 1331.98883,70.4474422 1331.98933,70.9975271 L1331.99082,72.7484314 C1329.39344,72.866022 1326.71058,73.4400236 1323.99988,74.4644571 C1323.09234,74.8072636 1322.33788,75.0265003 1321.69624,75.121669 L1321.6535,75.0648668 L1321.60032,75.1356204 C1320.1893,75.3194803 1319.3419,74.8705433 1318.65105,73.7295158 C1318.36676,73.2596516 1317.75494,73.1096737 1317.28527,73.3951797 C1316.81609,73.6806858 1316.66699,74.2935521 1316.95178,74.7639145 C1317.83546,76.2228353 1318.94827,76.8855282 1320.15401,77.0863291 C1318.77928,79.022588 1316,83.2174836 1316,85.4786115 C1316,88.509061 1318.43038,90.7936074 1321.6535,90.7936074 C1324.87661,90.7936074 1327.30699,88.509061 1327.30699,85.4786115 C1327.30699,83.1322802 1324.31449,78.7041965 1323.00437,76.8775559 C1323.57494,76.7305677 1324.14451,76.5392338 1324.70067,76.3294641 C1327.18423,75.3907323 1329.6325,74.8585849 1331.99281,74.7414926 L1332.01368,95.0069388 L1325.73346,95.0069388 C1325.18426,95.0069388 1324.73943,95.4533845 1324.73943,96.0034694 C1324.73943,96.5540526 1325.18426,97 1325.73346,97 L1340.28295,97 C1340.83214,97 1341.27697,96.5540526 1341.27697,96.0034694 C1341.27697,95.4533845 1340.83214,95.0069388 1340.28295,95.0069388 L1334.00172,95.0069388 L1333.98085,74.6762198 C1337.10854,74.8655606 1340.08513,75.8705617 1341.29933,76.3294641 C1341.85549,76.5392338 1342.42506,76.7305677 1342.99563,76.8775559 C1341.68551,78.7041965 1338.69301,83.1322802 1338.69301,85.4786115 C1338.69301,88.509061 1341.12339,90.7936074 1344.3465,90.7936074 C1347.56962,90.7936074 1350,88.509061 1350,85.4786115 C1350,83.2174836 1347.22072,79.022588 1345.84599,77.0863291 L1345.84599,77.0863291 Z" id="vesy-icon"></path>
            </g>
        </g>
    </g>
</svg>