<?xml version="1.0" encoding="UTF-8" standalone="no"?>
<svg width="32px" height="33px" viewBox="0 0 32 33" version="1.1" xmlns="http://www.w3.org/2000/svg" xmlns:xlink="http://www.w3.org/1999/xlink">
    <!-- Generator: sketchtool 3.8.3 (29802) - http://www.bohemiancoding.com/sketch -->
    <title>70021EF2-3E4B-459F-9D16-887A1E6876D5</title>
    <desc>Created with sketchtool.</desc>
    <defs></defs>
    <g id="Desktop" stroke="none" stroke-width="1" fill="none" fill-rule="evenodd">
        <g id="1-Главная-Triton" transform="translate(-1417.000000, -2606.000000)" fill="#5A7398">
            <g id="Footer" transform="translate(0.000000, 2521.000000)">
                <g id="Group-25">
                    <path d="M1440.82827,102.766589 C1442.17336,104.00514 1443.11121,105.013785 1443.64252,105.792523 C1443.88995,106.182243 1443.96916,106.527103 1443.88084,106.827804 C1443.79252,107.128505 1443.58855,107.279206 1443.27033,107.279206 L1439.76636,107.438318 C1439.27079,107.474065 1438.66939,107.172664 1437.96145,106.535514 C1437.2535,105.899065 1436.77547,105.367757 1436.52804,104.942991 C1436.38645,104.695561 1436.12991,104.553972 1435.75841,104.518224 C1435.38621,104.483178 1435.1472,104.659813 1435.04136,105.049533 L1434.93481,106.429673 C1434.89977,106.71285 1434.79322,106.925234 1434.61659,107.066822 C1434.43925,107.208411 1434.28925,107.288318 1434.16589,107.305841 C1434.04112,107.323364 1433.83785,107.35 1433.55467,107.385748 C1432.63435,107.420794 1431.82967,107.376636 1431.13925,107.25257 C1430.44883,107.128505 1429.82009,106.871963 1429.25444,106.482944 C1428.68808,106.093925 1428.23668,105.739953 1427.90023,105.421028 C1427.56449,105.102103 1427.07734,104.589019 1426.44089,103.881075 C1424.70607,101.403972 1423.41425,99.2626168 1422.56472,97.4570093 C1422.2465,96.7497664 1422.06916,96.1476636 1422.03341,95.6521028 C1422.1757,95.510514 1422.44136,95.4221963 1422.83037,95.3864486 C1423.22009,95.3514019 1423.78575,95.3422897 1424.52944,95.3598131 C1425.27243,95.3780374 1425.71472,95.3864486 1425.85631,95.3864486 C1426.21028,95.3514019 1426.49346,95.5462617 1426.70584,95.971028 C1427.59042,97.9525701 1428.45818,99.4925234 1429.30701,100.589486 C1429.87407,101.120093 1430.24556,101.031776 1430.4222,100.323832 C1430.49369,100.323832 1430.52874,99.4567757 1430.52874,97.7226636 C1430.56379,96.625 1430.1215,95.9352804 1429.20187,95.6521028 C1429.41355,95.0857477 1430.15724,94.8025701 1431.43154,94.8025701 C1431.74977,94.8025701 1432.13949,94.8200935 1432.5993,94.8551402 C1433.05911,94.8908879 1433.30724,94.9091121 1433.34229,94.9091121 C1434.40421,94.9091121 1434.93551,95.3331776 1434.93551,96.1827103 C1434.93481,96.2892523 1434.91729,96.5464953 1434.88224,96.9530374 C1434.8465,97.3595794 1434.81986,97.7492991 1434.80234,98.1207944 C1434.78481,98.4922897 1434.7757,98.8820093 1434.7757,99.2892523 C1434.7757,99.6957944 1434.82897,100.040654 1434.93551,100.324533 C1435.04136,100.607009 1435.18294,100.784346 1435.36028,100.85514 C1435.55444,100.713551 1435.74089,100.580374 1435.91752,100.457009 C1436.09486,100.332944 1436.28061,100.129673 1436.47547,99.8464953 C1436.66963,99.5633178 1436.81963,99.3509346 1436.92617,99.2093458 C1437.03271,99.067757 1437.19112,98.8021028 1437.40421,98.4130841 C1437.61659,98.0233645 1437.74065,97.7759346 1437.7757,97.6693925 C1437.81075,97.5635514 1437.93481,97.289486 1438.1472,96.8464953 C1438.35958,96.4042056 1438.46542,96.1827103 1438.46542,96.1827103 L1438.54533,96.0235981 C1438.68692,95.7053738 1438.80187,95.5196262 1438.89019,95.4663551 C1438.97921,95.4130841 1439.2,95.3864486 1439.55397,95.3864486 L1442.84556,95.3864486 C1443.23528,95.3864486 1443.46519,95.3955607 1443.53598,95.4130841 C1443.60678,95.4313084 1443.71332,95.510514 1443.85421,95.6521028 C1444.10234,95.971028 1443.88084,96.6607477 1443.19112,97.7226636 C1442.5007,98.7845794 1441.83692,99.6691589 1441.19977,100.377804 C1440.31519,101.368224 1440.19112,102.164486 1440.82827,102.766589 M1432.99322,85 C1424.16075,85 1417,92.2182243 1417,101.121495 C1417,110.025467 1424.16075,117.242991 1432.99322,117.242991 C1441.825,117.242991 1448.98645,110.025467 1448.98645,101.121495 C1448.98645,92.2182243 1441.825,85 1432.99322,85" id="Fill-9"></path>
                </g>
            </g>
        </g>
    </g>
</svg>