<?xml version="1.0" encoding="UTF-8" standalone="no"?>
<svg width="32px" height="32px" viewBox="0 0 32 32" version="1.1" xmlns="http://www.w3.org/2000/svg" xmlns:xlink="http://www.w3.org/1999/xlink">
    <!-- Generator: sketchtool 3.8.3 (29802) - http://www.bohemiancoding.com/sketch -->
    <title>A0E6EAE3-0BFE-4C07-B4D4-8676D67670C0</title>
    <desc>Created with sketchtool.</desc>
    <defs>
        <polygon id="path-1" points="3.9860398e-14 32 32 32 32 0 0 0 0 32"></polygon>
    </defs>
    <g id="Desktop" stroke="none" stroke-width="1" fill="none" fill-rule="evenodd">
        <g id="1-Главная-Triton" transform="translate(-1419.000000, -2649.000000)">
            <g id="Footer" transform="translate(0.000000, 2521.000000)">
                <g id="Group-25">
                    <g id="Group-7" transform="translate(1419.000000, 128.000000)">
                        <path d="M14,19 C15.6766853,18.1613333 17.324746,17.3373333 19,16.4986667 C17.3147274,15.6566667 15.6645198,14.832 14,14 L14,19 Z" id="Fill-17" fill="#E91D27"></path>
                        <mask id="mask-2" fill="white">
                            <use xlink:href="#path-1"></use>
                        </mask>
                        <g id="Clip-20"></g>
                        <path d="M24.7408511,20.2163478 C24.594995,21.1457391 23.8383661,21.9596522 22.9435947,22.1238261 C22.6203269,22.1829565 22.2851383,22.1850435 21.9548582,22.2045217 C19.3056055,22.3631304 16.6556515,22.4946087 14.0007889,22.3874783 C12.4258229,22.3234783 10.851558,22.2302609 9.27799448,22.1426087 C8.31239865,22.0883478 7.42043213,21.2577391 7.26055134,20.237913 C6.99758952,18.5537391 6.90292326,16.8563478 6.9527107,15.152 C6.98707104,14 7.07542622,12.8521739 7.25564272,11.7126957 C7.41552351,10.7053913 8.26822106,9.92208696 9.29272034,9.8706087 C11.5093132,9.76069565 13.7273086,9.66886957 15.8625586,9.57356522 C17.8421353,9.65704348 19.7354604,9.73426087 21.6294868,9.81704348 C22.0789762,9.83721739 22.5354779,9.83930435 22.9772538,9.91721739 C23.9414472,10.0869565 24.6321602,10.8605217 24.7703028,11.8671304 C24.9785686,13.3892174 25.0844546,14.9182609 25.0550028,16.4549565 C25.0304597,17.7147826 24.9357935,18.9697391 24.7408511,20.2163478 M16,0 C7.16378139,0 0,7.16313043 0,16 C0,24.8368696 7.16378139,32 16,32 C24.8355174,32 32,24.8368696 32,16 C32,7.16313043 24.8355174,0 16,0" id="Fill-19" fill="#EB363E" mask="url(#mask-2)"></path>
                    </g>
                </g>
            </g>
        </g>
    </g>
</svg>